<svg xmlns="http://www.w3.org/2000/svg" viewBox="0 0 23 23"><symbol id="6b1a3377-de05-4a66-a099-488027586086" viewBox="0 0 23 23" fill="none"><rect width="23" height="23" fill="#9e6ee5" rx="3.833"></rect><path fill="#fff" fill-rule="evenodd" d="M11.401 3.89c.058-.05.14-.05.207 0l6.21 4.737a.163.163 0 0 1 0 .265l-6.31 4.82-6.31-4.82a.163.163 0 0 1 0-.265L11.41 3.89zm6.029 9.929-2.294-1.748-.042-.033-2.335 1.789h4.679zM15.79 11.5l2.534 1.938c.53.406.53 1.209 0 1.614l-6.21 4.737c-.365.282-.87.282-1.235 0l-6.21-4.737a1.02 1.02 0 0 1 0-1.614L7.203 11.5 4.669 9.562a1.02 1.02 0 0 1 0-1.614l6.219-4.737c.364-.281.87-.281 1.234 0l6.21 4.737c.53.405.53 1.209 0 1.614L15.798 11.5zm-7.883.53-.042.033L5.191 14.1a.163.163 0 0 0 0 .265l6.21 4.737c.058.05.14.05.207 0l5.83-4.447H11.36l-.116-.083z" clip-rule="evenodd"></path></symbol><use href="#6b1a3377-de05-4a66-a099-488027586086"></use></svg>